<svg id="visual" viewBox="0 0 960 540" width="960" height="540" xmlns="http://www.w3.org/2000/svg" xmlns:xlink="http://www.w3.org/1999/xlink" version="1.1"><rect x="0" y="0" width="960" height="540" fill="#140021"></rect><path d="M547 0L359 0L359 77L476 77L476 154L369 154L369 231L469 231L469 309L499 309L499 386L474 386L474 463L351 463L351 540L0 540L0 463L0 463L0 386L0 386L0 309L0 309L0 231L0 231L0 154L0 154L0 77L0 77L0 0L0 0Z" fill="#9900ff"></path><path d="M303 0L230 0L230 77L306 77L306 154L254 154L254 231L382 231L382 309L224 309L224 386L274 386L274 463L375 463L375 540L0 540L0 463L0 463L0 386L0 386L0 309L0 309L0 231L0 231L0 154L0 154L0 77L0 77L0 0L0 0Z" fill="#7700c6"></path><path d="M134 0L136 0L136 77L240 77L240 154L200 154L200 231L118 231L118 309L184 309L184 386L233 386L233 463L195 463L195 540L0 540L0 463L0 463L0 386L0 386L0 309L0 309L0 231L0 231L0 154L0 154L0 77L0 77L0 0L0 0Z" fill="#560090"></path></svg>