<svg id="visual" viewBox="0 0 960 540" width="960" height="540" xmlns="http://www.w3.org/2000/svg" xmlns:xlink="http://www.w3.org/1999/xlink" version="1.1"><rect x="0" y="0" width="960" height="540" fill="#140021"></rect><path d="M578 540L501 540L501 463L584 463L584 386L407 386L407 309L424 309L424 231L413 231L413 154L460 154L460 77L572 77L572 0L960 0L960 77L960 77L960 154L960 154L960 231L960 231L960 309L960 309L960 386L960 386L960 463L960 463L960 540L960 540Z" fill="#9900ff"></path><path d="M619 540L657 540L657 463L681 463L681 386L679 386L679 309L698 309L698 231L569 231L569 154L693 154L693 77L581 77L581 0L960 0L960 77L960 77L960 154L960 154L960 231L960 231L960 309L960 309L960 386L960 386L960 463L960 463L960 540L960 540Z" fill="#7700c6"></path><path d="M720 540L752 540L752 463L722 463L722 386L866 386L866 309L807 309L807 231L874 231L874 154L783 154L783 77L852 77L852 0L960 0L960 77L960 77L960 154L960 154L960 231L960 231L960 309L960 309L960 386L960 386L960 463L960 463L960 540L960 540Z" fill="#560090"></path></svg>