<svg id="visual" viewBox="0 0 900 600" width="900" height="600" xmlns="http://www.w3.org/2000/svg" xmlns:xlink="http://www.w3.org/1999/xlink" version="1.1"><rect width="900" height="600" fill="#ffffff"></rect><g><g transform="translate(176 154)"><path d="M44 -15.1C49.5 2.5 41.1 23.8 26.6 33.7C12 43.6 -8.8 42.2 -23.3 31.7C-37.9 21.2 -46.2 1.8 -41.3 -15.1C-36.4 -32 -18.2 -46.3 0.6 -46.5C19.3 -46.7 38.6 -32.7 44 -15.1Z" stroke="#9900FF" fill="none" stroke-width="20"></path></g><g transform="translate(97 276)"><path d="M11.5 -3.8C13.2 1.7 11.9 8.1 7.9 11C3.9 14 -2.8 13.5 -7.6 10.1C-12.4 6.7 -15.5 0.3 -13.9 -4.9C-12.3 -10.1 -6.2 -14.2 -0.7 -14C4.8 -13.8 9.7 -9.3 11.5 -3.8Z" stroke="#9900FF" fill="none" stroke-width="20"></path></g><g transform="translate(250 533)"><path d="M27.4 -8.4C31.4 3.4 27.7 18.2 17.5 26.1C7.3 34 -9.4 34.9 -20.7 27C-32.1 19.1 -38.1 2.4 -33.7 -9.9C-29.4 -22.2 -14.7 -30 -1.5 -29.5C11.7 -29 23.4 -20.2 27.4 -8.4Z" stroke="#9900FF" fill="none" stroke-width="20"></path></g><g transform="translate(305 352)"><path d="M29.7 -9.6C33.4 1.9 28 16.5 17.4 24.2C6.9 31.9 -8.8 32.8 -18 25.8C-27.3 18.9 -30.2 4.1 -26.1 -7.9C-22 -19.9 -11 -29 1 -29.3C13 -29.6 25.9 -21.1 29.7 -9.6Z" stroke="#9900FF" fill="none" stroke-width="20"></path></g><g transform="translate(640 320)"><path d="M5.2 -1.6C6 0.9 5.5 3.9 3.8 5.2C2 6.5 -1 6 -3.2 4.4C-5.4 2.8 -6.8 0.1 -6.2 -2.2C-5.5 -4.4 -2.7 -6.1 -0.3 -6C2.2 -5.9 4.3 -4 5.2 -1.6Z" stroke="#9900FF" fill="none" stroke-width="20"></path></g><g transform="translate(13 428)"><path d="M42.3 -14.2C47.2 1.4 38.4 21 23.1 32.3C7.8 43.5 -14 46.3 -26.6 37C-39.2 27.8 -42.7 6.4 -36.8 -10.7C-30.8 -27.7 -15.4 -40.4 1.6 -41C18.7 -41.5 37.4 -29.9 42.3 -14.2Z" stroke="#9900FF" fill="none" stroke-width="20"></path></g><g transform="translate(611 583)"><path d="M39 -12.7C43.7 1.8 36 20.4 22.5 30C9 39.6 -10.4 40.2 -23 31.2C-35.7 22.1 -41.6 3.3 -36.7 -11.5C-31.7 -26.3 -15.9 -37.2 0.6 -37.4C17.1 -37.6 34.3 -27.2 39 -12.7Z" stroke="#9900FF" fill="none" stroke-width="20"></path></g><g transform="translate(31 76)"><path d="M13 -4.2C15 1.9 13.5 9.2 9 12.5C4.5 15.8 -3 15.1 -8.3 11.2C-13.6 7.4 -16.7 0.5 -15 -5.3C-13.3 -11.1 -6.6 -15.7 -0.6 -15.5C5.5 -15.3 11 -10.3 13 -4.2Z" stroke="#9900FF" fill="none" stroke-width="20"></path></g><g transform="translate(469 416)"><path d="M40.3 -12.8C45.4 2.5 37.9 22.2 23.8 32.5C9.6 42.7 -11.3 43.5 -25.4 33.6C-39.5 23.6 -46.9 3 -41.5 -12.7C-36.2 -28.4 -18.1 -39.1 -0.2 -39C17.6 -39 35.2 -28.1 40.3 -12.8Z" stroke="#9900FF" fill="none" stroke-width="20"></path></g><g transform="translate(737 445)"><path d="M35.9 -12.3C40.9 3.7 35.4 22.4 23.2 31.1C11 39.8 -8 38.5 -20 29.3C-32 20.2 -37 3.3 -32.5 -12.1C-28 -27.4 -14 -41.2 0.7 -41.4C15.5 -41.7 30.9 -28.4 35.9 -12.3Z" stroke="#9900FF" fill="none" stroke-width="20"></path></g><g transform="translate(892 297)"><path d="M29.7 -9.9C34.4 4.8 31.3 21.7 20.7 29.6C10.2 37.5 -7.7 36.4 -18.7 27.8C-29.7 19.3 -33.8 3.5 -29.6 -10.6C-25.3 -24.6 -12.7 -36.9 -0.1 -36.9C12.5 -36.8 25 -24.5 29.7 -9.9Z" stroke="#9900FF" fill="none" stroke-width="20"></path></g><g transform="translate(74 571)"><path d="M35.2 -11.4C39.1 0.6 31.3 16.4 18.6 25.7C5.9 34.9 -11.7 37.6 -22.5 30C-33.4 22.4 -37.4 4.5 -32.5 -8.9C-27.6 -22.2 -13.8 -31 0.9 -31.3C15.6 -31.6 31.3 -23.4 35.2 -11.4Z" stroke="#9900FF" fill="none" stroke-width="20"></path></g><g transform="translate(472 159)"><path d="M6.7 -2.4C7.7 0.7 6.6 4.2 4.3 5.9C1.9 7.5 -1.7 7.4 -4.3 5.6C-6.9 3.8 -8.5 0.2 -7.7 -2.8C-6.8 -5.8 -3.4 -8.4 -0.2 -8.3C2.9 -8.2 5.8 -5.5 6.7 -2.4Z" stroke="#9900FF" fill="none" stroke-width="20"></path></g><g transform="translate(389 8)"><path d="M16.5 -6C18.6 1.1 15.6 9.2 9.5 13.8C3.4 18.3 -5.7 19.4 -11.5 15.3C-17.3 11.2 -19.8 2 -17.3 -5.6C-14.8 -13.2 -7.4 -19.1 -0.1 -19.1C7.2 -19 14.4 -13 16.5 -6Z" stroke="#9900FF" fill="none" stroke-width="20"></path></g><g transform="translate(776 122)"><path d="M24.8 -7.1C28.3 2.6 24.6 15.7 15.7 22.3C6.8 29 -7.4 29.3 -15.8 22.9C-24.2 16.5 -27 3.4 -23.4 -6.4C-19.8 -16.2 -9.9 -22.8 0.4 -22.9C10.7 -23 21.4 -16.7 24.8 -7.1Z" stroke="#9900FF" fill="none" stroke-width="20"></path></g><g transform="translate(393 590)"><path d="M15 -4.5C17 1.3 14.5 8.9 9.3 12.6C4.2 16.3 -3.6 16 -8.4 12.4C-13.2 8.7 -14.9 1.6 -13 -4C-11.1 -9.7 -5.5 -13.9 0.5 -14.1C6.5 -14.2 13 -10.3 15 -4.5Z" stroke="#9900FF" fill="none" stroke-width="20"></path></g><g transform="translate(865 507)"><path d="M9.7 -3.3C11.2 1.3 10 6.7 6.6 9.2C3.2 11.7 -2.3 11.3 -6.1 8.5C-9.9 5.7 -12 0.6 -10.7 -3.9C-9.4 -8.4 -4.7 -12.1 -0.3 -12.1C4.1 -12 8.2 -8 9.7 -3.3Z" stroke="#9900FF" fill="none" stroke-width="20"></path></g><g transform="translate(763 256)"><path d="M38.3 -13.2C43.1 2.2 35.9 20.8 21.5 31.7C7.1 42.7 -14.3 46 -27.4 36.7C-40.4 27.5 -44.9 5.7 -39 -11.4C-33 -28.5 -16.5 -40.9 0.1 -41C16.8 -41 33.6 -28.7 38.3 -13.2Z" stroke="#9900FF" fill="none" stroke-width="20"></path></g><g transform="translate(599 56)"><path d="M9.5 -2.8C10.8 0.8 9.2 5.7 5.9 8.2C2.5 10.6 -2.7 10.7 -5.7 8.4C-8.7 6.1 -9.5 1.3 -8.2 -2.4C-6.9 -6.1 -3.5 -8.8 0.3 -8.9C4.1 -9 8.2 -6.5 9.5 -2.8Z" stroke="#9900FF" fill="none" stroke-width="20"></path></g><g transform="translate(250 29)"><path d="M23.1 -7.4C25.8 0.8 21.1 11.6 12.6 18C4.1 24.3 -8.1 26.2 -15.4 20.9C-22.7 15.7 -25.1 3.4 -21.7 -5.8C-18.3 -15 -9.2 -21 0.5 -21.2C10.2 -21.3 20.4 -15.6 23.1 -7.4Z" stroke="#9900FF" fill="none" stroke-width="20"></path></g><g transform="translate(648 180)"><path d="M8.1 -2.8C9.3 1 8.3 5.5 5.3 7.6C2.4 9.8 -2.3 9.7 -5.5 7.4C-8.8 5.1 -10.5 0.6 -9.3 -3.2C-8.2 -7 -4.1 -10.1 -0.3 -10C3.5 -9.9 6.9 -6.7 8.1 -2.8Z" stroke="#9900FF" fill="none" stroke-width="20"></path></g><g transform="translate(324 207)"><path d="M36 -12C40.7 2.8 34.5 20.9 22.9 28.6C11.3 36.3 -5.6 33.7 -16.7 25.1C-27.7 16.6 -32.9 2.1 -29.1 -11.4C-25.3 -24.9 -12.7 -37.4 1.5 -37.9C15.6 -38.4 31.3 -26.8 36 -12Z" stroke="#9900FF" fill="none" stroke-width="20"></path></g><g transform="translate(880 19)"><path d="M28.1 -9.5C32.1 3.2 28.1 18.2 18.6 24.8C9.2 31.5 -5.7 30 -17 22.1C-28.2 14.2 -35.8 0.1 -32.3 -11.8C-28.9 -23.7 -14.4 -33.4 -1.2 -33C12.1 -32.6 24.1 -22.2 28.1 -9.5Z" stroke="#9900FF" fill="none" stroke-width="20"></path></g><g transform="translate(744 594)"><path d="M23.3 -8.1C26.2 1.4 21.9 12.8 13.7 18.7C5.5 24.6 -6.5 25.1 -14.1 19.5C-21.7 14 -24.8 2.5 -21.7 -7.3C-18.6 -17.1 -9.3 -25 0.4 -25.2C10.2 -25.3 20.3 -17.6 23.3 -8.1Z" stroke="#9900FF" fill="none" stroke-width="20"></path></g><g transform="translate(162 409)"><path d="M5.7 -2C6.4 0.3 5.3 3.1 3.4 4.4C1.5 5.7 -1.3 5.6 -3.2 4.2C-5.2 2.8 -6.4 0.2 -5.7 -2.1C-5.1 -4.5 -2.5 -6.4 0 -6.4C2.5 -6.4 5 -4.4 5.7 -2Z" stroke="#9900FF" fill="none" stroke-width="20"></path></g></g></svg>