<svg id="visual" viewBox="0 0 900 600" width="900" height="600" xmlns="http://www.w3.org/2000/svg" xmlns:xlink="http://www.w3.org/1999/xlink" version="1.1"><rect width="900" height="600" fill="#001327"></rect><g><g transform="translate(795 449)"><path d="M74.1 -22.7C83.1 3.7 68.6 39 43.3 56.7C18.1 74.3 -17.8 74.2 -41.4 57C-64.9 39.9 -76 5.8 -67.1 -20.5C-58.1 -46.7 -29 -65.2 1.7 -65.7C32.5 -66.3 65.1 -49 74.1 -22.7Z" stroke="#9900ff" fill="none" stroke-width="20"></path></g><g transform="translate(789 198)"><path d="M55.2 -17.4C62.1 3.3 51.7 30.1 31.4 45.4C11 60.8 -19.4 64.6 -37.5 51.4C-55.7 38.3 -61.8 8.1 -53.5 -14.4C-45.2 -37 -22.6 -52 0.8 -52.3C24.2 -52.5 48.3 -38 55.2 -17.4Z" stroke="#9900ff" fill="none" stroke-width="20"></path></g><g transform="translate(400 91)"><path d="M46.5 -13.8C54 7.8 49.3 34.6 32 48.1C14.7 61.7 -15.3 61.9 -32.2 48.6C-49.1 35.3 -53 8.4 -45.5 -13.3C-38 -34.9 -19 -51.3 0.3 -51.4C19.5 -51.5 39.1 -35.3 46.5 -13.8Z" stroke="#9900ff" fill="none" stroke-width="20"></path></g><g transform="translate(235 229)"><path d="M60.1 -18.7C67.8 4.1 56.9 33.8 35.5 49.5C14 65.3 -18 67.1 -37.9 52.6C-57.8 38.1 -65.5 7.1 -57.1 -16.6C-48.8 -40.3 -24.4 -56.8 0.9 -57.1C26.2 -57.4 52.4 -41.5 60.1 -18.7Z" stroke="#9900ff" fill="none" stroke-width="20"></path></g><g transform="translate(12 86)"><path d="M53.7 -17.7C60.1 2.6 49.6 28.1 31.1 41.1C12.6 54.1 -13.7 54.7 -30.1 42.5C-46.5 30.3 -53 5.5 -46.3 -15C-39.6 -35.5 -19.8 -51.8 1.9 -52.4C23.6 -53 47.2 -38 53.7 -17.7Z" stroke="#9900ff" fill="none" stroke-width="20"></path></g><g transform="translate(290 458)"><path d="M43.3 -13.6C49.5 5.3 43.7 28.7 28.2 40.2C12.8 51.7 -12.2 51.4 -27.9 39.6C-43.7 27.9 -50.3 4.7 -44.1 -14.1C-38 -32.9 -19 -47.4 -0.3 -47.3C18.5 -47.2 37 -32.6 43.3 -13.6Z" stroke="#9900ff" fill="none" stroke-width="20"></path></g><g transform="translate(559 307)"><path d="M17.6 -5.1C20.2 2.3 17.9 11.9 11.9 16.2C5.9 20.6 -3.8 19.6 -10 14.9C-16.1 10.2 -18.7 1.6 -16.4 -5.3C-14.1 -12.3 -7.1 -17.7 0.2 -17.8C7.5 -17.9 14.9 -12.6 17.6 -5.1Z" stroke="#9900ff" fill="none" stroke-width="20"></path></g><g transform="translate(54 482)"><path d="M47.6 -16.3C53.2 1.7 43.3 23.9 27 35.2C10.7 46.6 -12 47.2 -27.3 36.4C-42.5 25.5 -50.4 3.3 -44.6 -14.9C-38.8 -33.2 -19.4 -47.4 0.8 -47.7C21 -48 42.1 -34.2 47.6 -16.3Z" stroke="#9900ff" fill="none" stroke-width="20"></path></g><g transform="translate(582 554)"><path d="M47.1 -15.4C54.6 7.7 49.8 34.8 32.6 48.1C15.4 61.3 -14.2 60.8 -31 47.4C-47.9 34.1 -52 7.9 -44.7 -14.9C-37.4 -37.7 -18.7 -57.3 0.6 -57.4C19.8 -57.6 39.6 -38.5 47.1 -15.4Z" stroke="#9900ff" fill="none" stroke-width="20"></path></g><g transform="translate(607 40)"><path d="M27.7 -8.9C31.8 3.7 28.3 19 18.8 26C9.2 33 -6.5 31.7 -16.7 24.1C-26.9 16.4 -31.7 2.3 -28 -9.7C-24.3 -21.8 -12.2 -31.7 -0.2 -31.6C11.8 -31.6 23.6 -21.5 27.7 -8.9Z" stroke="#9900ff" fill="none" stroke-width="20"></path></g><g transform="translate(213 1)"><path d="M37.6 -13.9C42.7 3.4 36.5 22.6 23.5 32C10.4 41.4 -9.5 41 -24.8 30.7C-40.1 20.4 -50.8 0.2 -45.9 -16.8C-41 -33.9 -20.5 -47.8 -2.1 -47.1C16.3 -46.4 32.6 -31.1 37.6 -13.9Z" stroke="#9900ff" fill="none" stroke-width="20"></path></g></g></svg>