<svg id="visual" viewBox="0 0 900 600" width="900" height="600" xmlns="http://www.w3.org/2000/svg" xmlns:xlink="http://www.w3.org/1999/xlink" version="1.1"><rect x="0" y="0" width="900" height="600" fill="#001220"></rect><defs><linearGradient id="grad1_0" x1="33.3%" y1="0%" x2="100%" y2="100%"><stop offset="20%" stop-color="#001220" stop-opacity="1"></stop><stop offset="80%" stop-color="#001220" stop-opacity="1"></stop></linearGradient></defs><defs><linearGradient id="grad2_0" x1="0%" y1="0%" x2="66.7%" y2="100%"><stop offset="20%" stop-color="#001220" stop-opacity="1"></stop><stop offset="80%" stop-color="#001220" stop-opacity="1"></stop></linearGradient></defs><g transform="translate(900, 0)"><path d="M0 243.4C-22.4 239.2 -44.8 235.1 -58.8 219.3C-72.7 203.4 -78.1 175.9 -98 169.7C-117.9 163.5 -152.1 178.6 -172.1 172.1C-192.1 165.5 -197.7 137.3 -196.6 113.5C-195.4 89.7 -187.5 70.2 -194.2 52C-200.8 33.8 -222.1 16.9 -243.4 0L0 0Z" fill="#FBAE3C"></path></g><g transform="translate(0, 600)"><path d="M0 -243.4C21.7 -242.3 43.4 -241.2 63 -235.1C82.6 -228.9 100.2 -217.7 119.5 -207C138.8 -196.2 159.9 -185.9 166.2 -166.2C172.4 -146.5 163.9 -117.4 171.5 -99C179 -80.6 202.7 -73 217.3 -58.2C232 -43.5 237.7 -21.8 243.4 0L0 0Z" fill="#FBAE3C"></path></g></svg>